<?xml version="1.0" encoding="UTF-8" standalone="no"?>
<!DOCTYPE svg PUBLIC "-//W3C//DTD SVG 1.1//EN" "http://www.w3.org/Graphics/SVG/1.1/DTD/svg11.dtd">
<svg width="100%" height="100%" viewBox="0 0 67 67" version="1.1" xmlns="http://www.w3.org/2000/svg" xmlns:xlink="http://www.w3.org/1999/xlink" xml:space="preserve" xmlns:serif="http://www.serif.com/" style="fill-rule:evenodd;clip-rule:evenodd;stroke-linejoin:round;stroke-miterlimit:2;">
    <g transform="matrix(1.08897,0,0,1.03077,-5.90017,-1.13031)">
        <path d="M35.868,1.097L66.944,1.097C67.019,1.097 66.944,26.637 66.944,33.597C66.944,51.534 52.674,66.097 35.868,66.097C19.062,66.097 5.418,51.534 5.418,33.597C5.418,15.659 19.062,1.097 35.868,1.097Z" style="fill:rgb(231,71,93);"/>
    </g>
    <g transform="matrix(0.877022,0,0,0.830149,1.98559,5.84686)">
        <path d="M35.868,1.097L66.944,1.097C67.019,1.097 66.944,26.637 66.944,33.597C66.944,51.534 52.674,66.097 35.868,66.097C19.062,66.097 5.418,51.534 5.418,33.597C5.418,15.659 19.062,1.097 35.868,1.097Z" style="fill:white;"/>
    </g>
    <g transform="matrix(-0.781213,9.5671e-17,-9.5671e-17,-0.781213,59.2922,63.4237)">
        <path d="M33.629,33.905C33.629,33.905 50.686,43.631 50.525,43.953C47.519,49.985 41.288,54.133 34.096,54.133C23.971,54.133 15.751,45.912 15.751,35.788C15.751,31.951 16.932,28.387 18.949,25.441C19.218,25.049 33.629,33.905 33.629,33.905Z" style="fill:rgb(255,219,154);"/>
    </g>
    <rect x="33.527" y="9.865" width="2.5" height="22.482"/>
    <g transform="matrix(0.737044,0.675845,-0.731439,0.797673,32.4756,-16.9815)">
        <rect x="33.527" y="9.865" width="2.5" height="22.482"/>
    </g>
    <g transform="matrix(1.12794,0,0,1.12794,-4.40448,-6.92556)">
        <path d="M33.629,33.905C33.629,33.905 50.686,43.631 50.525,43.953C47.519,49.985 41.288,54.133 34.096,54.133C23.971,54.133 15.751,45.912 15.751,35.788C15.751,31.951 16.932,28.387 18.949,25.441C19.218,25.049 33.629,33.905 33.629,33.905Z" style="fill:rgb(231,71,93);"/>
    </g>
</svg>
